<svg class="diagram-root" style="background: #f5f6f6" xmlns="http://www.w3.org/2000/svg" xmlns:xlink="http://www.w3.org/1999/xlink"><style>.diagram-root { font-family: "Helvetica Neue", sans-serif; font-size: 12px; } .t { overflow: visible; } .t-bg { y: 40; fill: #fff;   } .th { fill: #005aa0;   } .tht { fill: #fff; font-size: 14px;  } .tf { fill: #323c46; overflow: visible; } .tf.pk { fill: #005aa0; font-weight: bold; } .tf.fk { font-weight: bold; } .ty { fill: #adb1b5; font-weight: normal; text-anchor: end; } .r { fill: transparent; stroke: #c3c3c3; stroke-width: 1; } .l { stroke: 1; } .i { fill: #c2c7ce; stroke: #c2c7ce; } .i.ix { fill: #afb3b6; stroke: #000; } .fa { fill: transparent; overflow: visible; } .fa .bg.hover { fill: #f7f7f7; } .c { cy: 12; r: 4; stroke: #d2d2dc; fill: #d2d2dc; } .hr { fill: transparent; stroke: #323c46; stroke-opacity: 0.035; stroke-width: 13; } .dc { stroke: #fa5a3c; fill: #fa5a3c; } .x { stroke: white; stroke-width: 1; } .hl .th { fill: #1b9bff; } .hl .tht {  } .fhl .bg { fill: #e7f4ff; } .fhls .bg {  } .r.hl { stroke: #1b9bff; } .dim { opacity: 0.25; }</style><g class="drawing-wrapper" transform="translate(-163, -83) scale(1,1)"><g class="rs"><path d="M 594.5 283 m -1, 0 a 1,1 0 1,0 2,0 a 1,1 0 1,0 -2,0 M 594.5 283 m -0.5, 0 a 0.5,0.5 0 1,0 1,0 a 0.5,0.5 0 1,0 -1,0  M594.5 283 L594.5 283 606.5 283 M 594.5 289 m -1, 0 a 1,1 0 1,0 2,0 a 1,1 0 1,0 -2,0 M 594.5 289 m -0.5, 0 a 0.5,0.5 0 1,0 1,0 a 0.5,0.5 0 1,0 -1,0  M594.5 289 L594.5 289 601.5 283 594.5 277 M 594.5 277 m -1, 0 a 1,1 0 1,0 2,0 a 1,1 0 1,0 -2,0 M 594.5 277 m -0.5, 0 a 0.5,0.5 0 1,0 1,0 a 0.5,0.5 0 1,0 -1,0  M606.5 283 C 667.668 283, 663.48 559, 613.48 559 M 601.48 559 m -1, 0 a 1,1 0 1,0 2,0 a 1,1 0 1,0 -2,0 M 601.48 559 m -0.5, 0 a 0.5,0.5 0 1,0 1,0 a 0.5,0.5 0 1,0 -1,0  M601.48 559 L601.48 559 613.48 559 M607.48 565 L607.48 565 607.48 553" id="h2335932216" class="r"></path><path d="M 231 562 m -1, 0 a 1,1 0 1,0 2,0 a 1,1 0 1,0 -2,0 M 231 562 m -0.5, 0 a 0.5,0.5 0 1,0 1,0 a 0.5,0.5 0 1,0 -1,0  M231 562 L231 562 219 562 M 231 568 m -1, 0 a 1,1 0 1,0 2,0 a 1,1 0 1,0 -2,0 M 231 568 m -0.5, 0 a 0.5,0.5 0 1,0 1,0 a 0.5,0.5 0 1,0 -1,0  M231 568 L231 568 224 562 231 556 M 231 556 m -1, 0 a 1,1 0 1,0 2,0 a 1,1 0 1,0 -2,0 M 231 556 m -0.5, 0 a 0.5,0.5 0 1,0 1,0 a 0.5,0.5 0 1,0 -1,0  M219 562 C 169 562, 52 258, 414 258 M 426 258 m -1, 0 a 1,1 0 1,0 2,0 a 1,1 0 1,0 -2,0 M 426 258 m -0.5, 0 a 0.5,0.5 0 1,0 1,0 a 0.5,0.5 0 1,0 -1,0  M426 258 L426 258 414 258 M420 264 L420 264 420 252" id="h1736270986" class="r"></path><path d="M 231 587 m -1, 0 a 1,1 0 1,0 2,0 a 1,1 0 1,0 -2,0 M 231 587 m -0.5, 0 a 0.5,0.5 0 1,0 1,0 a 0.5,0.5 0 1,0 -1,0  M231 587 L231 587 219 587 M 231 593 m -1, 0 a 1,1 0 1,0 2,0 a 1,1 0 1,0 -2,0 M 231 593 m -0.5, 0 a 0.5,0.5 0 1,0 1,0 a 0.5,0.5 0 1,0 -1,0  M231 593 L231 593 224 587 231 581 M 231 581 m -1, 0 a 1,1 0 1,0 2,0 a 1,1 0 1,0 -2,0 M 231 581 m -0.5, 0 a 0.5,0.5 0 1,0 1,0 a 0.5,0.5 0 1,0 -1,0  M219 587 C 169.3825747454698 587, 151.9825747454698 733, 248 733 M 260 733 m -1, 0 a 1,1 0 1,0 2,0 a 1,1 0 1,0 -2,0 M 260 733 m -0.5, 0 a 0.5,0.5 0 1,0 1,0 a 0.5,0.5 0 1,0 -1,0  M260 733 L260 733 248 733 M254 739 L254 739 254 727" id="h3233325729" class="r"></path><path d="M 185 170 m -1, 0 a 1,1 0 1,0 2,0 a 1,1 0 1,0 -2,0 M 185 170 m -0.5, 0 a 0.5,0.5 0 1,0 1,0 a 0.5,0.5 0 1,0 -1,0  M185 170 L185 170 173 170 M 185 176 m -1, 0 a 1,1 0 1,0 2,0 a 1,1 0 1,0 -2,0 M 185 176 m -0.5, 0 a 0.5,0.5 0 1,0 1,0 a 0.5,0.5 0 1,0 -1,0  M185 176 L185 176 178 170 185 164 M 185 164 m -1, 0 a 1,1 0 1,0 2,0 a 1,1 0 1,0 -2,0 M 185 164 m -0.5, 0 a 0.5,0.5 0 1,0 1,0 a 0.5,0.5 0 1,0 -1,0  M173 170 C 123 170, 78 733, 248 733 M 260 733 m -1, 0 a 1,1 0 1,0 2,0 a 1,1 0 1,0 -2,0 M 260 733 m -0.5, 0 a 0.5,0.5 0 1,0 1,0 a 0.5,0.5 0 1,0 -1,0  M260 733 L260 733 248 733 M254 739 L254 739 254 727" id="h639454232" class="r"></path><path d="M 332.17 195 m -1, 0 a 1,1 0 1,0 2,0 a 1,1 0 1,0 -2,0 M 332.17 195 m -0.5, 0 a 0.5,0.5 0 1,0 1,0 a 0.5,0.5 0 1,0 -1,0  M332.17 195 L332.17 195 344.17 195 M 332.17 201 m -1, 0 a 1,1 0 1,0 2,0 a 1,1 0 1,0 -2,0 M 332.17 201 m -0.5, 0 a 0.5,0.5 0 1,0 1,0 a 0.5,0.5 0 1,0 -1,0  M332.17 201 L332.17 201 339.17 195 332.17 189 M 332.17 189 m -1, 0 a 1,1 0 1,0 2,0 a 1,1 0 1,0 -2,0 M 332.17 189 m -0.5, 0 a 0.5,0.5 0 1,0 1,0 a 0.5,0.5 0 1,0 -1,0  M344.17 195 Q 361.63 195, 379.09 226.5 T 414 258 M 426 258 m -1, 0 a 1,1 0 1,0 2,0 a 1,1 0 1,0 -2,0 M 426 258 m -0.5, 0 a 0.5,0.5 0 1,0 1,0 a 0.5,0.5 0 1,0 -1,0  M426 258 L426 258 414 258 M420 264 L420 264 420 252" id="h1499507187" class="r"></path><path d="M 655.7 729 m -1, 0 a 1,1 0 1,0 2,0 a 1,1 0 1,0 -2,0 M 655.7 729 m -0.5, 0 a 0.5,0.5 0 1,0 1,0 a 0.5,0.5 0 1,0 -1,0  M655.7 729 L655.7 729 667.7 729 M 655.7 735 m -1, 0 a 1,1 0 1,0 2,0 a 1,1 0 1,0 -2,0 M 655.7 735 m -0.5, 0 a 0.5,0.5 0 1,0 1,0 a 0.5,0.5 0 1,0 -1,0  M655.7 735 L655.7 735 662.7 729 655.7 723 M 655.7 723 m -1, 0 a 1,1 0 1,0 2,0 a 1,1 0 1,0 -2,0 M 655.7 723 m -0.5, 0 a 0.5,0.5 0 1,0 1,0 a 0.5,0.5 0 1,0 -1,0  M667.7 729 C 717.7 729, 754.4200000000001 258, 606.5 258 M 594.5 258 m -1, 0 a 1,1 0 1,0 2,0 a 1,1 0 1,0 -2,0 M 594.5 258 m -0.5, 0 a 0.5,0.5 0 1,0 1,0 a 0.5,0.5 0 1,0 -1,0  M594.5 258 L594.5 258 606.5 258 M600.5 264 L600.5 264 600.5 252" id="h221257298" class="r"></path></g><g class="hrs"></g><g class="ts"><svg width="168.5" height="225" x="426" y="201" id="h3299212598" class="t"><rect height="40" width="168.5" class="th"></rect><text x="13" y="25" class="tht">Employees</text><rect height="185" width="168.5" class="t-bg" y="40"></rect><text x="13" y="61" class="tf pk">emp_no<tspan x="155.5" class="ty">INTEGER</tspan></text><path d="M7,14A2,2 0 0,1 5,12A2,2 0 0,1 7,10A2,2 0 0,1 9,12A2,2 0 0,1 7,14M12.65,10C11.83,7.67 9.61,6 7, 6A6, 6 0 0, 0 1, 12A6, 6 0 0, 0 7, 18C9.61, 18 11.83, 16.33 12.65, 14H17V18H21V14H23V10H12.65Z" class="i pk" transform="translate(82.162109375, 48) scale(0.65)"></path><text x="13" y="86" class="tf fk">emp_title_id<tspan x="155.5" class="ty">VARCHAR</tspan></text><text x="13" y="111" class="tf">birth_date<tspan x="155.5" class="ty">DATE</tspan></text><text x="13" y="136" class="tf">first_name<tspan x="155.5" class="ty">VARCAHR</tspan></text><text x="13" y="161" class="tf">last_name<tspan x="155.5" class="ty">VARCHAR</tspan></text><text x="13" y="186" class="tf">sex<tspan x="155.5" class="ty">VARCHAR</tspan></text><text x="13" y="211" class="tf">hire_date<tspan x="155.5" class="ty">DATE</tspan></text></svg><svg width="147.17" height="100" x="231" y="505" id="h4086156755" class="t"><rect height="40" width="147.17" class="th"></rect><text x="13" y="25" class="tht">Dept_emp</text><rect height="60" width="147.17" class="t-bg" y="40"></rect><text x="13" y="61" class="tf fk">emp_no<tspan x="134.17" class="ty">INTEGER</tspan></text><text x="13" y="86" class="tf fk">dept_no<tspan x="134.17" class="ty">VARCHAR</tspan></text></svg><svg width="158.48" height="100" x="443" y="502" id="h1984824179" class="t"><rect height="40" width="158.48" class="th"></rect><text x="13" y="25" class="tht">Title</text><rect height="60" width="158.48" class="t-bg" y="40"></rect><text x="13" y="61" class="tf pk">title_id<tspan x="145.48" class="ty">VARCHAR</tspan></text><path d="M7,14A2,2 0 0,1 5,12A2,2 0 0,1 7,10A2,2 0 0,1 9,12A2,2 0 0,1 7,14M12.65,10C11.83,7.67 9.61,6 7, 6A6, 6 0 0, 0 1, 12A6, 6 0 0, 0 7, 18C9.61, 18 11.83, 16.33 12.65, 14H17V18H21V14H23V10H12.65Z" class="i pk" transform="translate(67.68898437499999, 48) scale(0.65)"></path><text x="13" y="86" class="tf">title<tspan x="145.48" class="ty">VARCHAR</tspan></text></svg><svg width="167.17" height="100" x="260" y="676" id="h3708248841" class="t"><rect height="40" width="167.17" class="th"></rect><text x="13" y="25" class="tht">Departments</text><rect height="60" width="167.17" class="t-bg" y="40"></rect><text x="13" y="61" class="tf pk">dept_no<tspan x="154.17" class="ty">VARCHAR</tspan></text><path d="M7,14A2,2 0 0,1 5,12A2,2 0 0,1 7,10A2,2 0 0,1 9,12A2,2 0 0,1 7,14M12.65,10C11.83,7.67 9.61,6 7, 6A6, 6 0 0, 0 1, 12A6, 6 0 0, 0 7, 18C9.61, 18 11.83, 16.33 12.65, 14H17V18H21V14H23V10H12.65Z" class="i pk" transform="translate(76.37898437499999, 48) scale(0.65)"></path><text x="13" y="86" class="tf">dept_name<tspan x="154.17" class="ty">VARCHAR</tspan></text></svg><svg width="142.7" height="100" x="513" y="672" id="h3858243705" class="t"><rect height="40" width="142.7" class="th"></rect><text x="13" y="25" class="tht">Salaries</text><rect height="60" width="142.7" class="t-bg" y="40"></rect><text x="13" y="61" class="tf fk">emp_no<tspan x="129.7" class="ty">INTEGER</tspan></text><text x="13" y="86" class="tf">salary<tspan x="129.7" class="ty">INTEGER</tspan></text></svg><svg width="147.17" height="100" x="185" y="113" id="h2403958395" class="t"><rect height="40" width="147.17" class="th"></rect><text x="13" y="25" class="tht">Dept_manager</text><rect height="60" width="147.17" class="t-bg" y="40"></rect><text x="13" y="61" class="tf fk">dept_no<tspan x="134.17" class="ty">VARCHAR</tspan></text><text x="13" y="86" class="tf fk">emp_no<tspan x="134.17" class="ty">INTEGER</tspan></text></svg></g></g><text class="qdbd-link" x="10" y="20">www.quickdatabasediagrams.com</text></svg>